<?xml version="1.0" encoding="UTF-8"?>
<!-- Generator: Adobe Illustrator 16.0.0, SVG Export Plug-In . SVG Version: 6.00 Build 0)  -->
<!DOCTYPE svg PUBLIC "-//W3C//DTD SVG 1.1//EN" "http://www.w3.org/Graphics/SVG/1.1/DTD/svg11.dtd">
<svg version="1.1" id="Layer_1" xmlns="http://www.w3.org/2000/svg" xmlns:xlink="http://www.w3.org/1999/xlink" x="0px" y="0px" width="176px" height="42px" viewBox="-193.5 0 176 42" enable-background="new -193.5 0 176 42" xml:space="preserve">
<g>
	<g>
		<path fill="#D6001C" d="M-165.124,15.039c-1.216-1.895-4.181-2.023-8.078-0.288l-13.867,6.177    c-3.477,1.548-5.709,4.082-6.287,7.133c-0.577,3.049,0.577,6.208,3.248,8.896l1.558,1.567c2.26,2.274,4.859,3.476,7.519,3.476    c3.661,0,6.834-2.271,8.708-6.232l6.456-13.638C-164.397,19.024-164.141,16.572-165.124,15.039z"/>
		<path fill="#D6001C" d="M-19.431,16.884c-0.246-0.196-0.553-0.304-0.975-0.322c-0.365,0-0.702,0.137-0.994,0.398    c-0.956,0.817-1.974,1.651-3.025,2.479c-1.06,0.833-2.08,1.611-3.063,2.335c-0.982,0.726-1.873,1.369-2.67,1.932    c-0.406,0.287-0.762,0.534-1.069,0.742c0.02-0.076,0.041-0.156,0.064-0.241c0.118-0.43,0.261-0.909,0.422-1.435    c0.163-0.527,0.326-1.027,0.489-1.5c0.166-0.485,0.299-0.899,0.402-1.243c0.148-0.507,0.183-0.723,0.113-0.851    c-0.153-0.502-0.707-0.758-1.109-0.906c-0.497-0.184-1.043-0.323-1.646-0.419c-0.251-0.029-0.499-0.049-0.74-0.06    c0.099-0.108,0.183-0.238,0.25-0.389c0.121-0.271,0.168-0.591,0.138-0.979c-0.08-0.627-0.375-1.205-0.878-1.716    c-0.464-0.472-1.019-0.866-1.65-1.174c-0.622-0.302-1.271-0.508-1.932-0.614c-0.7-0.112-1.285-0.089-1.776,0.066    c-0.619,0.196-1.314,0.627-2.128,1.316c-0.781,0.661-1.547,1.475-2.274,2.42c-0.727,0.941-1.385,1.987-1.957,3.108    c-0.583,1.144-0.958,2.297-1.114,3.41c-0.007,0.042-0.009,0.083-0.016,0.124c-0.275,0.264-0.55,0.53-0.812,0.776    c-0.701,0.662-1.262,1.17-1.676,1.515c-0.325,0.281-0.685,0.582-1.078,0.906c-0.385,0.319-0.762,0.611-1.124,0.876    c-0.36,0.261-0.688,0.475-0.973,0.637c-0.037,0.021-0.071,0.039-0.102,0.054c0.056-0.184,0.168-0.48,0.394-0.935l3.764-5.268    c0.213-0.338,0.393-0.912,0.035-1.729c-0.241-0.55-0.604-1.084-1.079-1.59c-0.469-0.498-0.989-0.926-1.547-1.271    c-0.612-0.379-1.12-0.553-1.589-0.561c-0.673-0.081-1.432,0.125-2.249,0.603c-0.054,0.032-0.107,0.063-0.161,0.096    c0.557-0.884,1.115-1.773,1.676-2.667c1.042-1.663,2.155-3.472,3.354-5.453c0.209-0.394,0.363-1.024-0.094-1.786    c-0.311-0.518-0.743-0.964-1.283-1.328c-0.542-0.366-1.126-0.597-1.739-0.684c-0.713-0.1-1.292,0.093-1.733,0.559    c-0.023,0.025-0.044,0.053-0.063,0.082c-1.247,2.036-2.504,4.014-3.739,5.88c-1.257,1.901-2.487,3.805-3.656,5.66    c-0.305,0.484-0.597,0.973-0.896,1.46c-0.488,0.499-1.021,1.014-1.611,1.544c-1.281,1.143-2.508,2.047-3.645,2.69    c-0.902,0.509-1.811,0.934-2.711,1.266c0.051-0.965,0.063-1.966,0.037-2.983c-0.032-1.246,0.033-2.479,0.193-3.667    c0.158-1.168,0.472-2.291,0.933-3.337c0.442-1.007,1.194-1.898,2.229-2.642c0.411-0.285,0.543-0.727,0.355-1.178    c-0.128-0.312-0.365-0.616-0.722-0.932c-0.318-0.28-0.712-0.552-1.172-0.81c-0.458-0.255-0.921-0.456-1.38-0.596    c-0.435-0.132-0.851-0.201-1.332-0.201c-0.005,0-0.01,0-0.015,0c-0.623,0.02-0.961,0.298-1.141,0.55    c-1.337,1.289-2.292,2.591-2.837,3.873c-0.543,1.278-0.877,2.521-0.99,3.694c-0.036,0.364-0.039,0.711-0.051,1.063    c-1.493,1.476-2.863,2.89-4.064,4.206c-1.338,1.467-2.5,2.749-3.487,3.846c-0.97,1.079-1.771,1.932-2.381,2.536    c-0.333,0.33-0.553,0.5-0.682,0.588c0.011-0.092,0.035-0.223,0.084-0.401c0.178-0.642,0.521-1.485,1.021-2.504    c0.5-1.025,1.142-2.226,1.908-3.571c0.767-1.345,1.589-2.738,2.442-4.141c0.864-1.418,1.744-2.833,2.643-4.242    c0.897-1.409,1.729-2.706,2.496-3.888l1.989-3.06c0.558-0.854,0.944-1.444,1.185-1.804c0.135-0.243,0.237-0.641-0.048-1.159    c-0.17-0.312-0.435-0.622-0.788-0.922c-0.332-0.281-0.725-0.546-1.168-0.789c-0.447-0.244-0.888-0.433-1.313-0.561    c-0.407-0.124-0.798-0.186-1.164-0.186c-0.005,0-0.095,0.001-0.101,0.002c-0.627,0.02-0.961,0.312-1.109,0.523    c-0.292,0.355-0.705,0.933-1.262,1.765c-0.539,0.806-1.159,1.752-1.861,2.84c-0.704,1.089-1.452,2.288-2.244,3.594    c-0.791,1.306-1.576,2.641-2.357,4c-0.779,1.358-1.529,2.729-2.229,4.072c-0.201,0.386-0.376,0.747-0.563,1.118    c-0.018,0.014-0.034,0.028-0.051,0.041c-1.059,0.833-2.079,1.611-3.062,2.335c-0.984,0.726-1.874,1.369-2.672,1.932    c-0.406,0.287-0.762,0.534-1.069,0.742c0.019-0.076,0.041-0.156,0.063-0.239c0.121-0.431,0.261-0.91,0.424-1.437    c0.163-0.527,0.325-1.027,0.488-1.499c0.168-0.486,0.302-0.901,0.402-1.244c0.148-0.507,0.183-0.723,0.113-0.851    c-0.154-0.503-0.707-0.758-1.108-0.906c-0.497-0.184-1.043-0.324-1.646-0.419c-0.251-0.029-0.498-0.049-0.74-0.06    c0.099-0.108,0.183-0.239,0.251-0.391c0.12-0.271,0.167-0.591,0.137-0.977c-0.08-0.628-0.375-1.206-0.877-1.716    c-0.464-0.471-1.02-0.866-1.65-1.174c-0.622-0.302-1.272-0.508-1.932-0.614c-0.7-0.112-1.284-0.089-1.777,0.066    c-0.619,0.197-1.314,0.627-2.128,1.317c-0.779,0.659-1.544,1.474-2.274,2.419c-0.727,0.94-1.385,1.986-1.956,3.107    c-0.567,1.111-0.935,2.234-1.099,3.325c-0.007,0.005-0.015,0.012-0.022,0.018c-0.754,0.618-1.54,1.213-2.337,1.768    c-0.789,0.55-1.566,1.02-2.309,1.397c-0.728,0.372-1.423,0.644-2.066,0.808c-0.585,0.15-1.085,0.165-1.487,0.04    c-0.361-0.111-0.634-0.359-0.835-0.759c-0.198-0.393-0.285-0.981-0.258-1.75c0.624-0.332,1.349-0.793,2.159-1.374    c0.923-0.66,1.826-1.409,2.684-2.226c0.862-0.821,1.624-1.682,2.262-2.559c0.672-0.923,1.062-1.794,1.161-2.605    c0.076-0.829-0.106-1.577-0.542-2.225c-0.412-0.61-0.934-1.109-1.554-1.482c-0.609-0.367-1.258-0.613-1.93-0.732    c-0.704-0.125-1.294-0.097-1.791,0.095c-1.321,0.541-2.496,1.292-3.492,2.232c-0.983,0.929-1.809,1.964-2.455,3.075    c-0.643,1.105-1.124,2.253-1.43,3.411c-0.099,0.371-0.172,0.731-0.235,1.085c-0.025,0.025-0.048,0.052-0.073,0.077    c-0.727,0.73-1.442,1.402-2.127,1.995c-0.67,0.581-1.249,1.003-1.719,1.256c-0.335,0.181-0.516,0.208-0.603,0.242    c-0.001-0.002-0.089-0.175,0.05-0.847c0.082-0.467,0.213-0.948,0.389-1.431c0.18-0.492,0.402-1.028,0.66-1.593    c0.26-0.569,0.558-1.182,0.895-1.836c0.338-0.661,0.727-1.402,1.158-2.215c0.11-0.197,0.266-0.482,0.465-0.855    c0.201-0.375,0.401-0.772,0.602-1.192c0.203-0.423,0.383-0.836,0.542-1.238c0.166-0.425,0.271-0.776,0.327-1.107    c0.056-0.559-0.144-1.161-0.61-1.841c-0.419-0.611-0.943-1.177-1.557-1.682c-0.615-0.505-1.27-0.908-1.946-1.198    c-0.752-0.32-1.382-0.396-1.994-0.184c-0.391,0.155-0.894,0.523-1.538,1.125c-0.602,0.563-1.287,1.275-2.037,2.117    c-0.742,0.832-1.554,1.785-2.413,2.833c-0.856,1.043-1.717,2.103-2.584,3.179c-0.089,0.111-0.178,0.221-0.267,0.331    c0.404-0.722,0.798-1.453,1.18-2.188c0.262-0.497,0.48-0.908,0.656-1.234c0.177-0.33,0.322-0.605,0.433-0.825    c0.116-0.231,0.209-0.434,0.28-0.608c0.069-0.171,0.138-0.359,0.208-0.565c0.174-0.52,0.237-1.048,0.188-1.571    c-0.046-0.479-0.128-0.953-0.246-1.42c-0.187-0.668-0.497-1.375-0.92-2.102c-0.424-0.726-0.874-1.338-1.345-1.829    c-0.5-0.494-1.064-0.63-1.594-0.394c-0.382,0.171-0.736,0.393-1.055,0.661c-0.611,0.517-1.333,1.221-2.147,2.092    c-0.815,0.873-1.683,1.86-2.582,2.935c-0.902,1.078-1.831,2.221-2.788,3.43l-3.1,3.925c0.465-0.825,0.919-1.66,1.354-2.499    c0.415-0.8,0.803-1.529,1.163-2.189c0.364-0.667,0.684-1.274,0.961-1.822c0.278-0.551,0.516-1.074,0.708-1.554    c0.197-0.495,0.344-0.978,0.435-1.432c0.109-0.51,0.021-1.132-0.267-1.902c-0.263-0.701-0.604-1.393-1.011-2.056    c-0.416-0.674-0.869-1.245-1.348-1.696c-0.586-0.552-1.123-0.761-1.642-0.624c-1.219,0.329-2.495,0.769-3.794,1.307    c-1.279,0.531-2.58,1.057-3.903,1.576c-1.306,0.513-2.628,0.957-3.93,1.319c-1.239,0.345-2.479,0.52-3.686,0.52l-0.104,0    c-1.224-0.011-2.428-0.25-3.581-0.713c-1.138-0.457-2.23-1.282-3.191-2.377c-0.197-0.34-0.38-0.599-0.562-0.792    c-0.329-0.349-0.763-0.399-1.09-0.156c-0.242,0.179-0.401,0.506-0.518,1.059c-0.096,0.444-0.153,1.091-0.175,1.982    c-0.023,1.222,0.106,2.269,0.386,3.111c0.286,0.862,0.708,1.575,1.256,2.117c0.551,0.546,1.231,0.939,2.021,1.167    c1.521,0.442,3.307,0.516,5.969-0.26c1.313-0.383,2.677-0.848,4.053-1.382c1.369-0.531,2.712-1.1,3.99-1.689    c1.275-0.588,2.344-1.106,3.182-1.543c0.158-0.084,0.291-0.151,0.404-0.206c-0.163,0.348-0.402,0.808-0.715,1.373    c-0.444,0.802-0.98,1.87-1.591,3.17c-0.35,0.734-0.748,1.539-1.194,2.414c-0.451,0.881-0.912,1.794-1.384,2.74    c-0.472,0.946-0.944,1.904-1.416,2.87c-0.473,0.968-0.922,1.904-1.351,2.806c-0.427,0.902-0.818,1.774-1.16,2.594    c-0.345,0.825-0.622,1.581-0.817,2.23c-0.122,0.36-0.112,0.77,0.029,1.216c0.124,0.392,0.329,0.793,0.609,1.194    c0.267,0.379,0.59,0.758,0.96,1.125c0.365,0.362,0.761,0.696,1.165,0.985c0.226,0.175,0.495,0.336,0.797,0.479    c0.311,0.148,0.626,0.25,0.94,0.303c0.133,0.022,0.264,0.033,0.395,0.033c0.198,0,0.395-0.025,0.585-0.075    c0.356-0.093,0.66-0.292,0.917-0.61c0.352-0.48,0.88-1.222,1.584-2.224c0.702-0.999,1.492-2.135,2.37-3.406    c0.876-1.269,1.807-2.609,2.793-4.02c0.984-1.409,1.947-2.764,2.889-4.064c0.791-1.093,1.552-2.114,2.27-3.043    c-0.001,0.002-0.002,0.004-0.003,0.006c-0.573,1.221-1.117,2.432-1.634,3.63c-0.517,1.199-1.001,2.365-1.451,3.498    c-0.451,1.131-0.836,2.193-1.143,3.15c-0.123,0.361-0.113,0.771,0.029,1.217c0.124,0.395,0.329,0.796,0.609,1.194    c0.27,0.382,0.593,0.761,0.96,1.124c0.356,0.353,0.738,0.677,1.136,0.966c0.212,0.226,0.477,0.411,0.784,0.55    c0.311,0.142,0.638,0.233,0.973,0.27c0.35,0.039,0.691,0.014,1.02-0.081c0.365-0.107,0.66-0.301,0.885-0.588    c0.375-0.502,0.864-1.185,1.471-2.046c0.602-0.857,1.275-1.807,2.02-2.848c0.744-1.042,1.523-2.126,2.333-3.255    c0.809-1.125,1.612-2.213,2.409-3.263c0.796-1.048,1.55-2.01,2.26-2.886c0.693-0.858,1.315-1.549,1.853-2.061    c0.01-0.01,0.02-0.02,0.03-0.029c-0.42,0.838-0.856,1.757-1.297,2.735c-0.462,1.024-0.887,2.071-1.264,3.113    c-0.373,1.03-0.702,2.038-0.979,2.994c-0.281,0.966-0.469,1.83-0.559,2.57c-0.061,0.512,0.134,1.029,0.579,1.538    c0.371,0.424,0.824,0.833,1.349,1.215c0.519,0.377,1.063,0.709,1.613,0.985c0.563,0.286,1.011,0.482,1.368,0.599    c0.417,0.139,0.95,0.003,1.726-0.45c0.633-0.369,1.361-0.882,2.163-1.522c0.765-0.609,1.575-1.316,2.407-2.095    c0.135,0.395,0.299,0.796,0.512,1.204c0.529,1.013,1.295,1.872,2.277,2.554c0.988,0.688,2.202,1.106,3.607,1.243    c0.211,0.021,0.426,0.032,0.646,0.032c1.243,0,2.643-0.342,4.156-1.014c0.379-0.164,0.833-0.426,1.349-0.778    c0.502-0.342,1.02-0.723,1.556-1.144c0.285-0.223,0.563-0.452,0.845-0.678c0.223,0.28,0.465,0.56,0.743,0.835    c0.387,0.383,0.79,0.737,1.198,1.05c0.417,0.321,0.822,0.588,1.202,0.792c0.403,0.219,0.744,0.325,1.041,0.325    c0.015,0,0.099-0.004,0.114-0.005c0.608-0.055,1.235-0.411,1.917-1.087c0.598-0.591,1.262-1.326,1.971-2.183l1.618-1.922    c0.025,0.556,0.154,1.116,0.383,1.663c0.22,0.53,0.48,1.012,0.774,1.43c0.305,0.435,0.647,0.792,1.019,1.061    c0.388,0.282,0.782,0.424,1.171,0.424c0.016,0,0.11-0.004,0.126-0.005c0.209-0.02,0.559-0.114,1.409-0.664    c0.571-0.371,1.259-0.853,2.046-1.434c0.721-0.533,1.504-1.133,2.338-1.788c-0.014,0.045-0.036,0.099-0.049,0.144    c-0.298,1.003-0.395,1.784-0.293,2.397c0.125,0.664,0.409,1.274,0.84,1.812c0.406,0.506,0.861,0.951,1.354,1.325    c0.503,0.377,1.013,0.659,1.514,0.836c0.387,0.137,0.71,0.203,0.987,0.203c0.131,0,0.253-0.016,0.359-0.044    c0.485-0.126,1.036-0.425,1.689-0.914c0.413-0.312,0.861-0.696,1.322-1.111c0.042,0.323,0.141,0.66,0.31,1.011    c0.264,0.547,0.685,1.04,1.25,1.467c0.554,0.417,1.252,0.74,2.078,0.962c0.511,0.139,1.079,0.208,1.689,0.208    c0.378,0,0.783-0.027,1.21-0.082c1.061-0.155,1.992-0.396,2.766-0.716c0.783-0.325,1.451-0.733,1.985-1.215    c0.533-0.481,0.966-1.03,1.288-1.631c0.269-0.501,0.484-1.048,0.644-1.63c0.592-0.152,1.206-0.354,1.83-0.602    c0.731-0.29,1.494-0.661,2.268-1.105c0.094-0.054,0.196-0.125,0.292-0.183c-0.523,1.029-1.028,2.076-1.506,3.136    c-0.338,0.747-0.146,1.285,0.078,1.607c0.281,0.401,0.695,0.699,1.234,0.887c0.331,0.113,0.693,0.171,1.076,0.171    c0.21,0,0.431-0.018,0.661-0.053c0.642-0.1,1.256-0.374,1.825-0.816c0.046-0.035,0.085-0.079,0.115-0.127l1.707-2.718    c0.094-0.046,0.173-0.122,0.224-0.221c0.064-0.127,0.235-0.396,0.684-0.956c0.375-0.467,0.833-0.996,1.359-1.571    c0.536-0.584,1.11-1.202,1.722-1.851c0.608-0.646,1.189-1.238,1.743-1.776c0.55-0.533,1.055-0.99,1.499-1.357    c0.135-0.111,0.251-0.201,0.351-0.273c-0.059,0.105-0.127,0.207-0.206,0.303c-0.143,0.178-0.239,0.304-0.28,0.364    c-0.264,0.371-0.572,0.806-0.922,1.306c-0.362,0.515-0.709,1.073-1.032,1.657c-0.329,0.595-0.62,1.217-0.866,1.851    c-0.255,0.654-0.421,1.315-0.491,1.96c-0.057,0.48,0.061,0.96,0.351,1.425c0.254,0.408,0.578,0.789,0.96,1.133    c0.379,0.339,0.783,0.625,1.198,0.849c0.449,0.242,0.843,0.374,1.207,0.4c0.703,0.046,1.397-0.049,2.075-0.288    c0.646-0.228,1.276-0.535,1.875-0.911c0.589-0.371,1.163-0.797,1.706-1.267c0.528-0.458,1.046-0.917,1.545-1.368    c0.344-0.298,0.756-0.678,1.195-1.094c0.218,0.271,0.454,0.542,0.725,0.811c0.384,0.382,0.788,0.735,1.198,1.051    c0.416,0.32,0.82,0.587,1.201,0.792c0.403,0.218,0.744,0.324,1.041,0.324c0.015,0,0.1-0.004,0.114-0.005    c0.609-0.055,1.236-0.411,1.919-1.087c0.604-0.599,1.268-1.334,1.97-2.182l1.618-1.923c0.024,0.554,0.153,1.114,0.383,1.664    c0.219,0.53,0.48,1.011,0.774,1.43c0.306,0.436,0.648,0.792,1.019,1.061c0.387,0.282,0.78,0.425,1.17,0.425    c0.016,0,0.11-0.004,0.126-0.005c0.21-0.02,0.56-0.114,1.409-0.664c0.57-0.37,1.259-0.852,2.048-1.435    c0.78-0.577,1.629-1.227,2.544-1.947c0.913-0.72,1.804-1.444,2.674-2.175s1.69-1.44,2.46-2.127    c0.771-0.688,1.412-1.272,1.927-1.761c0.358-0.357,0.54-0.721,0.54-1.082C-18.997,17.428-19.147,17.108-19.431,16.884z     M-119.79,19.063c0.403-0.755,0.843-1.451,1.308-2.068c0.457-0.606,0.923-1.11,1.385-1.498c0.497-0.415,0.806-0.502,0.977-0.502    c0.145,0,0.253,0.026,0.284,0.068c0.02,0.027,0.065,0.091,0.018,0.281c-0.097,0.459-0.344,0.987-0.734,1.572    c-0.408,0.612-0.905,1.231-1.478,1.841c-0.577,0.613-1.204,1.208-1.867,1.769c-0.27,0.228-0.534,0.444-0.793,0.646    C-120.483,20.505-120.18,19.796-119.79,19.063z M-107.166,29.127v-0.012h0L-107.166,29.127z M-100.384,18.019    c-0.183,0.109-0.314,0.26-0.384,0.439c-0.407,0.472-0.834,1.014-1.269,1.609c-0.524,0.692-1.043,1.362-1.556,2.011    c-0.499,0.631-0.975,1.184-1.415,1.642c-0.544,0.564-0.767,0.615-0.81,0.619c-0.008,0-0.016,0-0.023-0.001    c-0.001-0.056,0.003-0.145,0.025-0.278c0.079-0.474,0.271-1.046,0.571-1.701c0.303-0.664,0.683-1.335,1.127-1.998    c0.439-0.653,0.93-1.267,1.46-1.824c0.509-0.535,1.022-0.948,1.532-1.231c0.139-0.08,0.266-0.107,0.418-0.117    c0.033,0.004,0.095,0.072,0.144,0.185c0.085,0.231,0.2,0.413,0.343,0.543C-100.279,17.948-100.334,17.981-100.384,18.019z     M-79.445,29.645c-0.49,0.071-0.894,0.111-1.203,0.118c0.007-0.003,0.014-0.006,0.021-0.01c0.417-0.191,0.954-0.36,1.598-0.505    c0.342-0.08,0.695-0.141,1.051-0.182C-78.359,29.376-78.845,29.568-79.445,29.645z M-76.632,24.475    c-0.024,0.502-0.065,0.973-0.122,1.403c-0.399,0.045-0.809,0.083-1.227,0.116c-0.565,0.044-1.135,0.099-1.698,0.164    c-0.523,0.045-1.055,0.155-1.581,0.32c0.652-0.69,1.303-1.386,1.948-2.105l2.318-2.59c0.139-0.156,0.271-0.299,0.407-0.45    c0.019,0.318,0.035,0.633,0.035,0.908C-76.572,23.061-76.599,23.806-76.632,24.475z M-41.693,29.127v-0.012h0L-41.693,29.127z     M-34.909,18.018c-0.184,0.109-0.315,0.26-0.387,0.441c-0.407,0.472-0.834,1.014-1.268,1.608    c-0.524,0.692-1.043,1.362-1.557,2.011c-0.492,0.624-0.967,1.176-1.413,1.641c-0.545,0.564-0.767,0.615-0.811,0.619    c-0.008,0-0.016,0-0.023-0.001c-0.001-0.056,0.003-0.144,0.024-0.277c0.081-0.478,0.273-1.05,0.572-1.701    c0.306-0.67,0.686-1.342,1.127-1.998c0.438-0.652,0.93-1.266,1.459-1.824c0.511-0.536,1.024-0.948,1.533-1.231    c0.139-0.08,0.268-0.107,0.418-0.117c0.032,0.004,0.095,0.072,0.144,0.184c0.085,0.231,0.2,0.414,0.344,0.544    C-34.806,17.947-34.861,17.981-34.909,18.018z"/>
	</g>
	<g>
		<path fill="#FFFFFF" d="M-187.757,34.634c-5.282-5.316-3.979-12.173,2.889-15.232l13.866-6.176    c6.868-3.059,9.875-0.036,6.679,6.718l-6.456,13.639c-3.195,6.753-10.138,7.936-15.42,2.619L-187.757,34.634z"/>
		<g>
			<path fill="#FFFFFF" d="M-140.764,3.633c0.284-0.239,0.597-0.434,0.937-0.586c0.34-0.152,0.685-0.054,1.036,0.293     c0.438,0.456,0.859,1.031,1.266,1.727c0.405,0.695,0.695,1.356,0.872,1.986c0.109,0.435,0.186,0.879,0.23,1.335     c0.043,0.456-0.012,0.912-0.165,1.368c-0.065,0.195-0.131,0.375-0.197,0.538c-0.066,0.163-0.154,0.353-0.263,0.57     c-0.11,0.217-0.252,0.488-0.427,0.814c-0.176,0.326-0.395,0.739-0.658,1.238c-0.768,1.477-1.578,2.926-2.433,4.348     c-0.855,1.422-1.633,2.752-2.334,3.99c0.658-0.825,1.386-1.753,2.187-2.785c0.8-1.031,1.632-2.084,2.499-3.159     c0.866-1.075,1.726-2.133,2.582-3.176c0.854-1.042,1.654-1.981,2.399-2.817c0.745-0.836,1.414-1.531,2.006-2.084     c0.592-0.554,1.052-0.896,1.381-1.026c0.438-0.152,0.975-0.092,1.611,0.179c0.636,0.272,1.244,0.646,1.825,1.124     c0.581,0.478,1.068,1.005,1.463,1.58c0.395,0.575,0.57,1.08,0.526,1.515c-0.044,0.26-0.143,0.586-0.295,0.977     c-0.154,0.391-0.33,0.793-0.527,1.205c-0.197,0.413-0.395,0.804-0.592,1.173c-0.198,0.37-0.351,0.651-0.46,0.847     c-0.438,0.826-0.828,1.569-1.167,2.231c-0.34,0.662-0.641,1.281-0.904,1.856c-0.263,0.576-0.488,1.118-0.674,1.628     c-0.186,0.51-0.323,1.015-0.411,1.514c-0.153,0.738-0.104,1.178,0.148,1.319c0.251,0.141,0.63,0.076,1.134-0.196     c0.504-0.271,1.106-0.71,1.808-1.318s1.419-1.282,2.154-2.02c0.734-0.738,1.458-1.498,2.169-2.279     c0.712-0.782,1.354-1.499,1.923-2.15c0.198-0.217,0.422-0.337,0.674-0.358c0.251-0.021,0.471,0.027,0.658,0.146     c0.186,0.12,0.296,0.299,0.329,0.537c0.033,0.239-0.072,0.489-0.313,0.75c-0.242,0.413-0.664,0.972-1.267,1.677     c-0.602,0.706-1.293,1.455-2.071,2.248c-0.778,0.792-1.594,1.59-2.449,2.394c-0.855,0.804-1.677,1.521-2.467,2.15     c-0.788,0.629-1.49,1.124-2.104,1.481s-1.052,0.494-1.315,0.407c-0.329-0.108-0.762-0.298-1.298-0.57     c-0.538-0.27-1.052-0.586-1.545-0.944c-0.493-0.359-0.916-0.738-1.266-1.14c-0.352-0.402-0.504-0.788-0.46-1.157     c0.087-0.716,0.268-1.547,0.543-2.491c0.273-0.945,0.596-1.933,0.97-2.964c0.373-1.031,0.789-2.058,1.25-3.078     c0.46-1.021,0.909-1.965,1.347-2.833c0.088-0.196,0.16-0.385,0.215-0.57c0.054-0.184,0.054-0.32,0-0.407     c-0.055-0.086-0.17-0.098-0.346-0.033c-0.176,0.065-0.427,0.261-0.756,0.586c-0.548,0.521-1.179,1.222-1.89,2.101     c-0.713,0.879-1.469,1.846-2.27,2.898c-0.799,1.054-1.605,2.145-2.416,3.273c-0.812,1.129-1.59,2.215-2.334,3.257     c-0.745,1.042-1.42,1.993-2.022,2.851c-0.603,0.857-1.091,1.536-1.463,2.035c-0.154,0.195-0.362,0.33-0.625,0.408     c-0.263,0.075-0.537,0.096-0.821,0.063c-0.285-0.032-0.56-0.108-0.822-0.228c-0.264-0.12-0.483-0.276-0.658-0.472     c-0.395-0.282-0.768-0.597-1.119-0.945c-0.351-0.347-0.652-0.7-0.904-1.058s-0.433-0.711-0.542-1.059     c-0.111-0.348-0.122-0.652-0.033-0.912c0.306-0.955,0.684-1.997,1.134-3.126c0.449-1.129,0.932-2.291,1.447-3.485     c0.515-1.193,1.057-2.399,1.627-3.615c0.57-1.215,1.118-2.377,1.644-3.484c-0.57,0.586-1.271,1.412-2.104,2.475     c-0.833,1.064-1.721,2.247-2.663,3.55c-0.943,1.303-1.907,2.66-2.894,4.071c-0.986,1.412-1.918,2.752-2.794,4.022     c-0.877,1.27-1.666,2.405-2.367,3.403c-0.702,0.999-1.228,1.737-1.579,2.216c-0.175,0.216-0.389,0.357-0.641,0.423     c-0.252,0.065-0.51,0.075-0.773,0.033c-0.263-0.044-0.532-0.13-0.805-0.261c-0.275-0.13-0.51-0.272-0.707-0.423     c-0.395-0.283-0.768-0.598-1.118-0.945c-0.351-0.348-0.652-0.7-0.904-1.058c-0.252-0.359-0.433-0.711-0.542-1.059     c-0.11-0.347-0.121-0.651-0.033-0.912c0.197-0.651,0.465-1.384,0.805-2.198c0.34-0.813,0.724-1.671,1.151-2.573     c0.427-0.901,0.876-1.835,1.348-2.801c0.471-0.966,0.941-1.921,1.414-2.866c0.471-0.944,0.931-1.856,1.381-2.736     c0.449-0.879,0.849-1.688,1.2-2.426c0.613-1.303,1.139-2.35,1.578-3.143c0.438-0.792,0.734-1.378,0.888-1.759     c0.153-0.379,0.136-0.57-0.05-0.57s-0.586,0.163-1.2,0.489c-0.833,0.434-1.886,0.944-3.156,1.531     c-1.271,0.586-2.592,1.146-3.962,1.677c-1.37,0.532-2.708,0.988-4.011,1.368c-1.305,0.379-2.406,0.57-3.305,0.57     c-0.876,0-1.671-0.103-2.383-0.31c-0.713-0.206-1.315-0.553-1.809-1.042c-0.493-0.489-0.872-1.129-1.134-1.922     c-0.263-0.792-0.384-1.774-0.361-2.947c0.021-0.846,0.076-1.477,0.165-1.889c0.087-0.412,0.197-0.667,0.328-0.765     c0.131-0.098,0.274-0.065,0.428,0.098c0.153,0.163,0.317,0.396,0.493,0.7c1.074,1.237,2.219,2.1,3.437,2.589     c1.216,0.488,2.47,0.738,3.764,0.75c1.293,0.011,2.603-0.168,3.929-0.538c1.326-0.369,2.652-0.814,3.978-1.335     c1.327-0.521,2.631-1.047,3.913-1.58c1.282-0.531,2.526-0.96,3.732-1.286c0.329-0.086,0.718,0.081,1.167,0.504     c0.449,0.423,0.872,0.956,1.266,1.596c0.395,0.641,0.717,1.298,0.97,1.971c0.252,0.673,0.334,1.216,0.247,1.628     c-0.087,0.435-0.225,0.885-0.411,1.352c-0.187,0.467-0.417,0.972-0.69,1.514c-0.275,0.543-0.592,1.146-0.954,1.808     c-0.361,0.663-0.751,1.396-1.167,2.198c-0.767,1.477-1.578,2.926-2.433,4.348c-0.855,1.422-1.633,2.752-2.334,3.99     c0.57-0.673,1.25-1.508,2.039-2.508c0.79-0.999,1.633-2.068,2.531-3.208c0.899-1.14,1.825-2.313,2.778-3.518     c0.954-1.206,1.879-2.345,2.779-3.42c0.898-1.074,1.753-2.046,2.564-2.915C-142.059,4.816-141.356,4.133-140.764,3.633z"/>
			<path fill="#FFFFFF" d="M-101.63,16.628c-0.922,1.042-1.897,2.063-2.927,3.061c-1.031,0.999-2.038,1.944-3.025,2.833     c-0.394,0.348-0.85,0.733-1.364,1.156c-0.516,0.424-1.036,0.841-1.562,1.254s-1.036,0.788-1.529,1.124     c-0.494,0.337-0.916,0.581-1.266,0.732c-1.709,0.76-3.228,1.075-4.553,0.944c-1.327-0.129-2.45-0.515-3.371-1.156     c-0.92-0.64-1.627-1.432-2.121-2.377c-0.493-0.944-0.762-1.839-0.806-2.687c-0.044-0.934,0.082-1.959,0.378-3.078     c0.296-1.119,0.756-2.215,1.38-3.29c0.625-1.075,1.414-2.063,2.367-2.964c0.954-0.9,2.066-1.612,3.338-2.133     c0.394-0.151,0.899-0.174,1.512-0.064c0.613,0.108,1.2,0.331,1.759,0.667c0.559,0.337,1.024,0.782,1.397,1.335     s0.526,1.189,0.46,1.905c-0.088,0.717-0.444,1.504-1.068,2.361c-0.625,0.858-1.36,1.689-2.203,2.492     c-0.844,0.804-1.721,1.531-2.63,2.182s-1.693,1.14-2.351,1.465c-0.066,0.999,0.033,1.759,0.296,2.281     c0.263,0.521,0.641,0.858,1.134,1.009c0.494,0.152,1.079,0.141,1.759-0.033c0.679-0.174,1.403-0.456,2.17-0.847     c0.767-0.39,1.557-0.868,2.367-1.433c0.811-0.564,1.6-1.162,2.368-1.792c0.592-0.477,1.216-1.004,1.874-1.579     c0.657-0.575,1.298-1.141,1.924-1.694c0.623-0.554,1.21-1.08,1.758-1.58c0.548-0.499,0.997-0.933,1.348-1.303     c0.219-0.217,0.449-0.326,0.69-0.326c0.241,0,0.438,0.071,0.592,0.212c0.153,0.141,0.235,0.332,0.247,0.57     C-101.275,16.118-101.39,16.367-101.63,16.628z M-119.188,19.104c-0.066,0.217-0.126,0.435-0.181,0.651     c-0.055,0.217-0.104,0.435-0.147,0.651c0.614-0.412,1.26-0.906,1.939-1.482c0.68-0.575,1.315-1.178,1.907-1.808     c0.591-0.63,1.102-1.265,1.529-1.906c0.427-0.64,0.696-1.221,0.806-1.742c0.065-0.261,0.033-0.483-0.099-0.667     c-0.132-0.184-0.362-0.277-0.69-0.277c-0.373,0-0.806,0.207-1.299,0.619c-0.493,0.413-0.981,0.939-1.463,1.58     c-0.482,0.641-0.932,1.352-1.349,2.133S-118.97,18.387-119.188,19.104z"/>
			<path fill="#FFFFFF" d="M-96.815,14.511c0.021,0.282-0.012,0.521-0.099,0.717c-0.087,0.195-0.209,0.332-0.362,0.407     c-0.154,0.076-0.308,0.087-0.46,0.033s-0.274-0.201-0.362-0.44c-0.131-0.304-0.313-0.473-0.542-0.505     c-0.229-0.033-0.477,0.028-0.739,0.179c-0.548,0.304-1.097,0.744-1.645,1.319c-0.548,0.576-1.053,1.205-1.512,1.89     c-0.459,0.684-0.85,1.373-1.167,2.068c-0.318,0.695-0.521,1.303-0.608,1.824c-0.066,0.413-0.028,0.663,0.115,0.749     c0.142,0.086,0.301,0.12,0.477,0.098c0.263-0.043,0.618-0.298,1.069-0.765c0.449-0.467,0.931-1.026,1.446-1.678     c0.515-0.651,1.036-1.324,1.562-2.02c0.459-0.629,0.898-1.183,1.315-1.661c0.021-0.108,0.088-0.195,0.197-0.26     c0.176-0.13,0.417-0.196,0.723-0.196c0.11,0,0.208,0.011,0.296,0.033c0.351,0,0.712,0.021,1.086,0.064     c0.547,0.087,1.057,0.217,1.528,0.392c0.472,0.173,0.74,0.37,0.806,0.586c0.021,0.043-0.017,0.234-0.115,0.57     c-0.099,0.337-0.23,0.744-0.395,1.222c-0.165,0.478-0.328,0.982-0.493,1.515c-0.165,0.532-0.307,1.015-0.428,1.449     s-0.192,0.776-0.213,1.026c-0.022,0.25,0.032,0.331,0.165,0.244c0.415-0.26,1.024-0.673,1.824-1.238     c0.801-0.564,1.693-1.21,2.681-1.938c0.987-0.727,2.011-1.509,3.074-2.345c1.063-0.836,2.077-1.667,3.042-2.492     c0.218-0.196,0.455-0.288,0.708-0.277c0.251,0.012,0.459,0.082,0.624,0.212c0.165,0.13,0.247,0.31,0.247,0.538     s-0.132,0.473-0.395,0.733c-0.504,0.478-1.14,1.059-1.907,1.743c-0.768,0.684-1.584,1.39-2.449,2.117     c-0.867,0.728-1.754,1.449-2.664,2.166c-0.91,0.716-1.754,1.363-2.532,1.938c-0.779,0.575-1.453,1.048-2.021,1.417     c-0.571,0.37-0.965,0.564-1.185,0.585c-0.307,0.022-0.624-0.086-0.954-0.326c-0.329-0.238-0.63-0.553-0.904-0.944     c-0.275-0.391-0.516-0.834-0.723-1.335c-0.208-0.499-0.324-0.998-0.346-1.498c-0.044-0.391-0.055-0.814-0.032-1.27     c-0.045,0.065-0.1,0.12-0.165,0.163l-2.302,2.736c-0.702,0.847-1.347,1.563-1.939,2.149c-0.592,0.587-1.129,0.901-1.611,0.945     c-0.22,0.022-0.509-0.064-0.871-0.26c-0.363-0.195-0.741-0.445-1.135-0.749c-0.395-0.303-0.778-0.64-1.151-1.009     c-0.373-0.369-0.69-0.737-0.954-1.107c-0.284-0.37-0.432-0.783-0.443-1.238s0.027-0.934,0.115-1.433     c0.153-1.085,0.509-2.176,1.069-3.273c0.558-1.096,1.193-2.106,1.907-3.029c0.712-0.922,1.446-1.704,2.203-2.345     c0.756-0.641,1.408-1.047,1.956-1.222c0.417-0.13,0.932-0.146,1.545-0.049c0.614,0.098,1.211,0.288,1.792,0.57     c0.581,0.283,1.085,0.641,1.513,1.075C-97.128,13.513-96.882,13.99-96.815,14.511z"/>
			<path fill="#FFFFFF" d="M-76.95,0.344c0.153-0.217,0.4-0.331,0.739-0.342c0.34-0.011,0.708,0.043,1.103,0.163     c0.394,0.119,0.799,0.293,1.216,0.521c0.416,0.228,0.778,0.472,1.085,0.732c0.306,0.261,0.531,0.521,0.673,0.782     c0.143,0.261,0.159,0.489,0.05,0.684c-0.22,0.326-0.608,0.917-1.167,1.775c-0.559,0.858-1.222,1.878-1.99,3.062     c-0.767,1.184-1.599,2.481-2.498,3.892c-0.9,1.412-1.782,2.829-2.648,4.25c-0.865,1.423-1.681,2.807-2.449,4.153     c-0.767,1.346-1.409,2.546-1.923,3.599c-0.516,1.053-0.866,1.917-1.052,2.588c-0.186,0.674-0.136,1.042,0.148,1.108     c0.242,0.066,0.668-0.207,1.282-0.814c0.614-0.607,1.415-1.459,2.401-2.556c0.986-1.097,2.147-2.377,3.484-3.843     c1.338-1.466,2.861-3.034,4.571-4.706c0.284-0.239,0.542-0.358,0.772-0.358c0.231,0,0.411,0.071,0.542,0.211     c0.131,0.142,0.197,0.326,0.197,0.554c0,0.228-0.099,0.462-0.296,0.7l-0.494,0.619c-0.679,0.716-1.402,1.503-2.169,2.361     c-0.766,0.858-1.54,1.721-2.317,2.589c-0.779,0.869-1.562,1.716-2.351,2.54c-0.789,0.826-1.529,1.569-2.22,2.23     c-0.69,0.662-1.332,1.216-1.923,1.662c-0.592,0.445-1.096,0.722-1.513,0.83c-0.241,0.066-0.591,0.017-1.052-0.146     c-0.46-0.162-0.92-0.418-1.381-0.765c-0.461-0.348-0.882-0.76-1.266-1.238c-0.384-0.478-0.63-1.01-0.741-1.596     c-0.086-0.521,0.006-1.243,0.281-2.167c0.272-0.922,0.667-1.964,1.183-3.126c0.514-1.161,1.123-2.415,1.825-3.762     c0.701-1.346,1.441-2.697,2.219-4.055c0.779-1.356,1.562-2.688,2.351-3.99c0.79-1.302,1.535-2.496,2.236-3.582     c0.701-1.086,1.32-2.03,1.858-2.833C-77.646,1.267-77.235,0.691-76.95,0.344z"/>
			<path fill="#FFFFFF" d="M-60.477,20.081c-0.921,0.912-1.798,1.688-2.63,2.329c-0.834,0.641-1.627,1.178-2.384,1.613     c-0.756,0.434-1.49,0.792-2.203,1.074c-0.712,0.283-1.398,0.5-2.055,0.652c-0.154,0.651-0.378,1.254-0.674,1.807     c-0.296,0.553-0.69,1.053-1.184,1.499c-0.494,0.444-1.107,0.818-1.841,1.124c-0.735,0.303-1.616,0.532-2.647,0.683     c-1.031,0.131-1.928,0.093-2.696-0.114c-0.767-0.206-1.402-0.5-1.907-0.879c-0.505-0.38-0.872-0.81-1.102-1.287     c-0.23-0.478-0.322-0.912-0.28-1.303c0.022-0.325,0.175-0.635,0.461-0.928c0.285-0.292,0.641-0.553,1.068-0.781     c0.427-0.228,0.893-0.424,1.397-0.587c0.504-0.162,1.008-0.265,1.512-0.309c0.57-0.066,1.134-0.12,1.693-0.163     s1.102-0.098,1.627-0.163c0.087-0.542,0.148-1.15,0.182-1.824c0.033-0.673,0.061-1.421,0.082-2.247     c0-0.738-0.06-1.596-0.181-2.573c-0.121-0.978-0.126-2.03-0.016-3.159c0.109-1.129,0.428-2.313,0.954-3.55     c0.526-1.238,1.447-2.486,2.762-3.746c0.152-0.239,0.411-0.363,0.771-0.375c0.362-0.01,0.757,0.049,1.185,0.179     s0.854,0.315,1.282,0.554c0.427,0.239,0.789,0.488,1.086,0.749c0.295,0.26,0.493,0.51,0.591,0.749     c0.099,0.239,0.038,0.435-0.18,0.586c-1.118,0.804-1.919,1.753-2.4,2.85c-0.483,1.097-0.806,2.252-0.97,3.469     c-0.164,1.216-0.23,2.465-0.197,3.746c0.033,1.281,0.005,2.507-0.082,3.68c1.162-0.369,2.329-0.884,3.502-1.547     c1.172-0.662,2.416-1.58,3.731-2.752c0.701-0.63,1.332-1.238,1.891-1.824c0.559-0.586,1.21-1.238,1.957-1.954     c0.218-0.217,0.448-0.326,0.69-0.326c0.241,0,0.438,0.071,0.592,0.211c0.153,0.142,0.235,0.331,0.247,0.57     c0.011,0.239-0.104,0.489-0.346,0.749c-0.219,0.239-0.439,0.483-0.657,0.732c-0.22,0.25-0.457,0.516-0.708,0.798     c-0.252,0.282-0.538,0.586-0.855,0.912C-59.727,19.332-60.082,19.689-60.477,20.081z M-77.377,28.157     c1.184-0.152,2.017-0.716,2.499-1.694c-0.374,0.044-0.751,0.088-1.135,0.131c-0.383,0.043-0.761,0.108-1.134,0.195     c-0.679,0.152-1.243,0.332-1.693,0.538c-0.448,0.206-0.711,0.391-0.789,0.553c-0.076,0.164,0.056,0.282,0.396,0.359     C-78.895,28.314-78.276,28.288-77.377,28.157z"/>
			<path fill="#FFFFFF" d="M-52.225,4.48c0.329-0.347,0.761-0.483,1.299-0.407c0.536,0.076,1.046,0.277,1.527,0.603     c0.483,0.325,0.861,0.716,1.136,1.172c0.273,0.456,0.301,0.891,0.082,1.303c-1.184,1.954-2.296,3.761-3.337,5.422     c-1.042,1.661-2.077,3.306-3.107,4.934c0.789-0.695,1.545-1.254,2.269-1.677c0.723-0.423,1.369-0.603,1.939-0.538     c0.396,0,0.855,0.163,1.382,0.489c0.526,0.325,1.007,0.722,1.447,1.188c0.438,0.467,0.767,0.95,0.986,1.45     c0.219,0.5,0.219,0.923,0,1.27l-3.748,5.244c-0.307,0.608-0.482,1.053-0.526,1.335c-0.045,0.283,0.017,0.44,0.181,0.472     c0.164,0.033,0.399-0.038,0.707-0.211c0.307-0.173,0.646-0.396,1.02-0.667c0.372-0.272,0.756-0.57,1.149-0.896     c0.396-0.326,0.757-0.629,1.085-0.912c0.417-0.348,0.981-0.857,1.693-1.531c0.712-0.673,1.474-1.411,2.285-2.214     c0.811-0.803,1.627-1.618,2.45-2.443c0.822-0.825,1.562-1.563,2.219-2.215c0.284-0.239,0.547-0.358,0.789-0.358     c0.241,0,0.427,0.065,0.559,0.196c0.13,0.13,0.197,0.315,0.197,0.554s-0.098,0.467-0.296,0.684l-0.493,0.619     c-0.417,0.456-0.976,1.048-1.677,1.775c-0.701,0.728-1.436,1.477-2.203,2.247c-0.768,0.771-1.524,1.52-2.269,2.248     c-0.745,0.728-1.38,1.319-1.907,1.775c-0.504,0.456-1.019,0.912-1.545,1.368c-0.526,0.456-1.075,0.863-1.645,1.222     c-0.569,0.358-1.161,0.646-1.775,0.863c-0.614,0.216-1.238,0.304-1.874,0.261c-0.285-0.021-0.62-0.135-1.002-0.342     c-0.384-0.207-0.751-0.467-1.103-0.782c-0.351-0.314-0.641-0.657-0.871-1.026c-0.23-0.37-0.324-0.738-0.28-1.108     c0.066-0.607,0.219-1.221,0.461-1.839c0.241-0.62,0.52-1.216,0.838-1.791c0.317-0.575,0.652-1.113,1.003-1.613     c0.35-0.499,0.656-0.933,0.92-1.303c0.044-0.065,0.132-0.179,0.263-0.342c0.133-0.163,0.242-0.337,0.329-0.521     c0.088-0.185,0.137-0.358,0.148-0.521c0.011-0.163-0.082-0.277-0.28-0.342c-0.241,0.065-0.591,0.288-1.052,0.667     c-0.459,0.38-0.969,0.842-1.529,1.384c-0.559,0.542-1.146,1.14-1.759,1.792c-0.614,0.651-1.189,1.27-1.727,1.856     c-0.537,0.587-0.998,1.12-1.38,1.596c-0.384,0.479-0.631,0.826-0.74,1.042l-0.066-0.033l-1.841,2.931     c-0.503,0.391-1.035,0.63-1.594,0.717c-0.559,0.086-1.058,0.053-1.497-0.097c-0.438-0.153-0.767-0.386-0.987-0.701     c-0.218-0.314-0.23-0.689-0.033-1.124c0.922-2.041,1.919-4.012,2.993-5.912c1.074-1.899,2.203-3.788,3.386-5.667     c1.184-1.878,2.401-3.762,3.65-5.651C-54.723,8.485-53.474,6.521-52.225,4.48z"/>
			<path fill="#FFFFFF" d="M-31.342,14.511c0.021,0.282-0.012,0.521-0.1,0.717s-0.209,0.332-0.361,0.407     c-0.154,0.076-0.308,0.087-0.46,0.033c-0.154-0.054-0.274-0.201-0.362-0.44c-0.132-0.304-0.313-0.473-0.542-0.505     c-0.229-0.033-0.477,0.028-0.739,0.179c-0.549,0.304-1.097,0.744-1.645,1.319c-0.547,0.576-1.052,1.205-1.512,1.89     c-0.461,0.684-0.85,1.373-1.167,2.068c-0.319,0.695-0.521,1.303-0.609,1.824c-0.065,0.413-0.027,0.663,0.116,0.749     c0.142,0.086,0.3,0.12,0.477,0.098c0.263-0.043,0.618-0.298,1.069-0.765c0.448-0.467,0.931-1.026,1.445-1.678     c0.516-0.651,1.037-1.324,1.563-2.02c0.459-0.629,0.898-1.183,1.315-1.661c0.021-0.108,0.087-0.195,0.197-0.26     c0.175-0.13,0.417-0.196,0.723-0.196c0.109,0,0.208,0.011,0.296,0.033c0.351,0,0.712,0.021,1.085,0.064     c0.548,0.087,1.057,0.217,1.529,0.392c0.471,0.173,0.74,0.37,0.806,0.586c0.021,0.043-0.017,0.234-0.115,0.57     c-0.099,0.337-0.231,0.744-0.395,1.222c-0.165,0.478-0.329,0.982-0.494,1.515c-0.164,0.532-0.307,1.015-0.427,1.449     c-0.121,0.435-0.193,0.776-0.214,1.026s0.033,0.331,0.165,0.244c0.417-0.26,1.025-0.673,1.825-1.238     c0.8-0.564,1.693-1.21,2.68-1.938c0.987-0.727,2.011-1.509,3.075-2.345c1.063-0.836,2.077-1.667,3.042-2.492     c0.218-0.196,0.454-0.288,0.707-0.277c0.252,0.012,0.46,0.082,0.624,0.212c0.165,0.13,0.248,0.31,0.248,0.538     s-0.133,0.473-0.395,0.733c-0.504,0.478-1.141,1.059-1.908,1.743c-0.767,0.684-1.583,1.39-2.449,2.117     c-0.866,0.728-1.753,1.449-2.663,2.166c-0.91,0.716-1.755,1.363-2.532,1.938c-0.779,0.575-1.453,1.048-2.022,1.417     c-0.571,0.37-0.966,0.564-1.185,0.585c-0.307,0.022-0.625-0.086-0.953-0.326c-0.329-0.238-0.63-0.553-0.904-0.944     c-0.274-0.391-0.515-0.834-0.722-1.335c-0.209-0.499-0.325-0.998-0.346-1.498c-0.044-0.391-0.056-0.814-0.032-1.27     c-0.045,0.065-0.1,0.12-0.166,0.163l-2.301,2.736c-0.702,0.847-1.349,1.563-1.939,2.149c-0.592,0.587-1.129,0.901-1.612,0.945     c-0.219,0.022-0.509-0.064-0.871-0.26c-0.361-0.195-0.739-0.445-1.134-0.749c-0.395-0.303-0.779-0.64-1.151-1.009     c-0.373-0.369-0.69-0.737-0.954-1.107c-0.285-0.37-0.433-0.783-0.444-1.238s0.027-0.934,0.116-1.433     c0.152-1.085,0.509-2.176,1.068-3.273c0.559-1.096,1.194-2.106,1.908-3.029c0.71-0.922,1.445-1.704,2.203-2.345     c0.756-0.641,1.407-1.047,1.956-1.222c0.416-0.13,0.932-0.146,1.545-0.049c0.613,0.098,1.211,0.288,1.792,0.57     c0.581,0.283,1.085,0.641,1.512,1.075C-31.656,13.513-31.409,13.99-31.342,14.511z"/>
		</g>
	</g>
</g>
</svg>